Coordinates
version=1
nRows=8
nColumns=46
inDegrees=yes

Units are S.I. units (second, meters, Newtons, ...)
Angles are in degrees.

endheader
time	pelvis_tilt	pelvis_list	pelvis_rotation	pelvis_tx	pelvis_ty	pelvis_tz	bb_angle	bb_tx	bb_ty	bb_tz	hip_flexion_r	hip_adduction_r	hip_rotation_r	knee_angle_r	knee_angle_r_beta	ankle_angle_r	subtalar_angle_r	mtp_angle_r	crank_angle_r	hip_flexion_l	hip_adduction_l	hip_rotation_l	knee_angle_l	knee_angle_l_beta	ankle_angle_l	subtalar_angle_l	mtp_angle_l	crank_angle_l	lumbar_extension	lumbar_bending	lumbar_rotation	arm_flex_r	arm_add_r	arm_rot_r	elbow_flex_r	pro_sup_r	wrist_flex_r	wrist_dev_r	arm_flex_l	arm_add_l	arm_rot_l	elbow_flex_l	pro_sup_l	wrist_flex_l	wrist_dev_l
      7.50000000	    -30.39362854	      3.86486985	     15.40138095	      0.38349073	      1.14585829	     -0.26999846	      0.00000000	      0.50000000	      0.00000000	      0.25000000	     32.85932637	    -13.93538277	     -8.62097368	     26.59597259	      0.46418729	     -6.11567121	      4.82749855	      0.00000000	      0.00000000	     89.33280336	      0.75057374	      0.84208812	    108.91114238	      1.90085803	    -11.04805523	     -0.55404634	      0.00000000	      0.00000000	    -60.63000748	      2.65464514	    -11.82573290	     32.18313733	    -16.63184766	     10.01284997	    107.08312566	     48.58360478	      0.00000000	      0.00000000	     45.37136328	    -37.67021189	     26.54769944	    104.34945254	     54.89400989	      0.00000000	      0.00000000
      7.50500000	    -30.68798636	      3.50382302	     15.88530338	      0.38325671	      1.14742891	     -0.27001448	      0.00000000	      0.50000000	      0.00000000	      0.25000000	     32.33130160	    -14.03329664	    -10.08526477	     26.27716247	      0.45862300	     -6.55168429	      6.04717638	      0.00000000	      0.00000000	     90.45588847	      1.06639669	      0.91946047	    108.40822849	      1.89208052	    -11.31087425	     -0.18851808	      0.00000000	      0.00000000	    -60.38705336	      3.05599525	    -12.20505841	     32.55982889	    -16.09337489	     10.28606735	    106.44373386	     48.51118514	      0.00000000	      0.00000000	     45.28588494	    -38.15204957	     26.41127431	    104.51495732	     54.89642522	      0.00000000	      0.00000000
      7.51000000	    -30.88131155	      3.14596519	     16.22694505	      0.38287715	      1.14941801	     -0.26990989	      0.00000000	      0.50000000	      0.00000000	      0.25000000	     31.86945178	    -14.00077857	    -11.33502608	     26.18240957	      0.45696925	     -7.02194390	      6.86241237	      0.00000000	      0.00000000	     91.31586375	      1.44201586	      1.11416583	    107.75212093	      1.88062929	    -11.39996457	      0.00766616	      0.00000000	      0.00000000	    -60.23617030	      3.57726602	    -14.37573452	     34.68978127	    -14.35209858	     12.66726323	    103.91781226	     48.44902121	      0.00000000	      0.00000000	     42.62202024	    -40.66375138	     23.35393150	    106.58231659	     54.79902777	      0.00000000	      0.00000000
      7.51500000	    -31.17385634	      2.71110251	     16.41279889	      0.38245812	      1.15157541	     -0.26972524	      0.00000000	      0.50000000	      0.00000000	      0.25000000	     31.70063959	    -13.81749917	    -12.22755010	     26.27357135	      0.45856033	     -7.61196745	      7.34170280	      0.00000000	      0.00000000	     92.08184163	      1.55789579	      1.26925577	    106.91895180	      1.86608774	    -11.38775103	      0.44773133	      0.00000000	      0.00000000	    -60.12618583	      3.79199787	    -14.35463621	     34.97552211	    -14.16796898	     12.65769712	    103.73493934	     48.41912493	      0.00000000	      0.00000000	     42.94034686	    -40.79439604	     23.29059873	    106.70218291	     54.80052953	      0.00000000	      0.00000000
      7.52000000	    -31.26848991	      2.15527869	     16.68589052	      0.38204333	      1.15408998	     -0.26989306	      0.00000000	      0.50000000	      0.00000000	      0.25000000	     31.46805736	    -13.60265184	    -13.42732457	     26.65920620	      0.46529092	     -8.04008716	      7.95073342	      0.00000000	      0.00000000	     92.49577204	      1.83595351	      1.65583083	    105.97090015	      1.84954112	    -10.86095054	      1.06545785	      0.00000000	      0.00000000	    -60.10230986	      4.23435523	    -14.46668767	     35.57259489	    -13.73496443	     12.80420232	    102.88211212	     48.30080791	      0.00000000	      0.00000000	     43.01960455	    -41.35848160	     23.40386448	    106.83589047	     54.82140956	      0.00000000	      0.00000000
      7.52500000	    -31.47667966	      1.75360048	     16.69235692	      0.38155180	      1.15676777	     -0.26987230	      0.00000000	      0.50000000	      0.00000000	      0.25000000	     31.58933869	    -13.38682377	    -13.92224951	     27.29072284	      0.47631297	     -8.65660262	      7.94799106	      0.00000000	      0.00000000	     92.73893476	      2.02804161	      1.90509639	    104.83826412	      1.82977289	    -10.19150355	      1.29128293	      0.00000000	      0.00000000	    -60.13625340	      4.36827970	    -14.36625827	     36.00629501	    -13.61819502	     12.85331894	    102.69613936	     48.27350589	      0.00000000	      0.00000000	     43.29598114	    -41.58061651	     23.23507643	    106.95636466	     54.81358573	      0.00000000	      0.00000000
      7.53000000	    -31.67906380	      1.24167418	     16.73289478	      0.38107103	      1.15954969	     -0.27005872	      0.00000000	      0.50000000	      0.00000000	      0.25000000	     31.87919920	    -13.12583093	    -14.47528918	     28.19373576	      0.49207352	     -9.20205865	      7.69616637	      0.00000000	      0.00000000	     92.74490702	      2.19318723	      2.22271410	    103.52475644	      1.80684786	     -8.99545038	      1.84533375	      0.00000000	      0.00000000	    -60.13134198	      4.61929505	    -14.35549649	     36.63184029	    -13.52761554	     12.85729262	    102.22799703	     48.19443383	      0.00000000	      0.00000000	     43.46781975	    -41.96922405	     23.01037054	    107.16774160	     54.81521915	      0.00000000	      0.00000000
      7.53500000	    -31.86015874	      0.75919936	     16.50608585	      0.38079932	      1.16230876	     -0.27012072	      0.00000000	      0.50000000	      0.00000000	      0.25000000	     32.34128494	    -12.71817562	    -14.56088468	     29.27676159	      0.51097588	     -9.78087617	      7.08543385	      0.00000000	      0.00000000	     92.46218243	      2.19021719	      2.62213108	    102.06193313	      1.78131677	     -7.36160418	      2.72448849	      0.00000000	      0.00000000	    -60.07977163	      4.67767211	    -14.54319469	     37.50763681	    -13.08593535	     13.49066747	    101.05200162	     48.07018251	      0.00000000	      0.00000000	     43.08590888	    -42.73166844	     22.61875269	    107.50318546	     54.82145338	      0.00000000	      0.00000000
